<svg width="478" height="485" viewBox="0 0 478 485" fill="none" xmlns="http://www.w3.org/2000/svg">
<g clip-path="url(#clip0_1310_843)">
<path fill-rule="evenodd" clip-rule="evenodd" d="M-14.9199 -194.887C-14.9199 -227.534 11.5459 -254 44.1932 -254C97.5037 -254 157.142 -249.871 211.818 -235.209C278.739 -217.264 331.337 -181.47 371.805 -141.003C412.525 -100.283 443.963 -50.5193 460.199 5.36188C476.421 61.1966 477.57 128.273 477.57 179.377C477.57 212.025 451.104 238.49 418.457 238.49L231.061 238.49V425.887C231.061 458.534 204.595 485 171.947 485C118.637 485 58.9988 480.871 4.32281 466.209C-62.5983 448.264 -115.197 412.47 -155.664 372.003C-196.384 331.283 -227.822 281.519 -244.058 225.638C-260.28 169.803 -261.43 102.727 -261.43 51.6228C-261.43 18.9755 -234.964 -7.49034 -202.317 -7.49034L-14.92 -7.49033L-14.9199 -194.887ZM-14.92 72.8358L-180.995 72.8358C-180.477 118.645 -177.821 165.714 -166.922 203.227C-154.891 244.635 -131.171 282.898 -98.8647 315.204C-66.3052 347.764 -25.6185 375.016 25.1277 388.624C63.8492 399.008 107.519 403.395 150.734 404.426V238.49H77.8318C26.6064 238.49 -14.92 196.964 -14.92 145.738L-14.92 72.8358ZM150.735 158.164H77.8318C70.9693 158.164 65.4061 152.601 65.4061 145.738V72.8358H138.309C145.171 72.8358 150.735 78.399 150.735 85.2615V158.164ZM231.061 158.164V85.2615C231.061 34.0362 189.534 -7.49028 138.309 -7.4903L65.4061 -7.49031L65.4061 -173.426C108.622 -172.395 152.291 -168.008 191.013 -157.624C241.759 -144.016 282.446 -116.764 315.005 -84.2041C347.312 -51.8977 371.032 -13.6348 383.062 27.7731C393.962 65.2862 396.618 112.355 397.135 158.164L231.061 158.164Z" fill="black" fill-opacity="0.1"/>
</g>
<defs>
<clipPath id="clip0_1310_843">
<rect width="478" height="485" fill="white"/>
</clipPath>
</defs>
</svg>
