<svg width="554" height="230" viewBox="0 0 554 230" fill="none" xmlns="http://www.w3.org/2000/svg">
    <rect x="260.57" y="220" width="16" height="9" fill="white"/>
    <rect x="368.57" y="193" width="18" height="9" fill="white"/>
    <rect x="449.57" y="220" width="18" height="9" fill="white"/>
    <rect x="178" y="216" width="18" height="9" fill="white"/>
    <rect x="213.57" y="193" width="18" height="9" fill="white"/>
    <rect x="399.57" y="220" width="18" height="9" fill="white"/>
    <rect x="297" y="220" width="25" height="9" fill="white"/>
    <rect x="334" y="218" width="26" height="9" fill="white"/>
    <path d="M28.26 58.728C27.988 56.688 27.0813 55.2373 25.54 54.376C23.9987 53.4693 22.072 52.9707 19.76 52.88C18.944 52.88 18.0827 52.948 17.176 53.084C16.3147 53.22 15.4987 53.492 14.728 53.9C13.9573 54.308 13.3227 54.852 12.824 55.532C12.3253 56.212 12.076 57.0507 12.076 58.048C12.0307 59.0907 12.28 59.9747 12.824 60.7C13.4133 61.4253 14.184 62.0147 15.136 62.468C15.816 62.7853 16.5413 63.08 17.312 63.352C18.128 63.5787 18.9213 63.8053 19.692 64.032C20.4627 64.2133 21.2107 64.372 21.936 64.508C22.6613 64.644 23.296 64.78 23.84 64.916C25.7893 65.324 27.6707 65.8 29.484 66.344C31.2973 66.888 32.9067 67.636 34.312 68.588C35.7173 69.54 36.8507 70.8093 37.712 72.396C38.5733 73.9827 39.0267 76.0453 39.072 78.584C39.072 81.3493 38.5507 83.7067 37.508 85.656C36.4653 87.6053 35.06 89.1693 33.292 90.348C31.6147 91.5267 29.6653 92.388 27.444 92.932C25.2227 93.4307 22.7747 93.6347 20.1 93.544C17.516 93.4987 15.0907 93.1587 12.824 92.524C10.5573 91.844 8.54 90.8693 6.772 89.6C5.04933 88.3307 3.66667 86.744 2.624 84.84C1.58133 82.936 0.992 80.692 0.856 78.108H10.92C11.192 79.2867 11.6453 80.2613 12.28 81.032C12.9147 81.8027 13.6627 82.4373 14.524 82.936C15.3853 83.4347 16.3373 83.7973 17.38 84.024C18.468 84.2507 19.556 84.3867 20.644 84.432C21.7773 84.4773 22.8653 84.432 23.908 84.296C24.9507 84.16 25.8573 83.9107 26.628 83.548C27.444 83.14 28.0787 82.596 28.532 81.916C28.9853 81.236 29.212 80.3747 29.212 79.332C29.212 77.8813 28.7587 76.816 27.852 76.136C26.9907 75.456 26.0387 74.98 24.996 74.708C24.2707 74.5267 23.6133 74.368 23.024 74.232C22.48 74.0507 21.936 73.9147 21.392 73.824C20.848 73.688 20.2813 73.552 19.692 73.416C19.1027 73.28 18.4227 73.1213 17.652 72.94C15.9293 72.4867 14.1387 71.988 12.28 71.444C10.4667 70.8547 8.83467 70.0387 7.384 68.996C5.616 67.772 4.27867 66.208 3.372 64.304C2.51067 62.4 2.12533 60.292 2.216 57.98C2.352 55.26 2.98667 53.016 4.12 51.248C5.25333 49.4347 6.704 48.0067 8.472 46.964C10.24 45.9213 12.1893 45.196 14.32 44.788C16.4507 44.38 18.5813 44.1987 20.712 44.244C23.0693 44.2893 25.2453 44.6293 27.24 45.264C29.28 45.8533 31.048 46.7373 32.544 47.916C34.0853 49.0947 35.332 50.5907 36.284 52.404C37.236 54.2173 37.8253 56.3253 38.052 58.728H28.26ZM54.0649 61.788C55.4249 60.0653 56.8756 58.7507 58.4169 57.844C60.0036 56.9373 61.7943 56.4613 63.7889 56.416C66.3729 56.3707 68.4583 56.8693 70.0449 57.912C71.6316 58.9547 72.8783 60.3827 73.7849 62.196C75.3716 60.2467 77.0716 58.796 78.8849 57.844C80.6983 56.892 82.7609 56.416 85.0729 56.416C86.8863 56.416 88.4276 56.6653 89.6969 57.164C90.9663 57.6627 92.0769 58.3427 93.0289 59.204C94.3436 60.428 95.2729 61.992 95.8169 63.896C96.4063 65.7547 96.7009 67.8627 96.7009 70.22V93H87.1129V72.804C87.1129 71.852 87.0449 70.8773 86.9089 69.88C86.7729 68.8827 86.4783 68.0213 86.0249 67.296C85.6169 66.5253 85.0049 65.936 84.1889 65.528C83.3729 65.0747 82.3303 64.8933 81.0609 64.984C79.9276 65.0747 78.9303 65.4373 78.0689 66.072C77.2076 66.6613 76.5956 67.432 76.2329 68.384C75.8703 69.336 75.6209 70.356 75.4849 71.444C75.3943 72.532 75.3489 73.5973 75.3489 74.64V93H65.7609V72.804C65.7609 71.852 65.6929 70.8773 65.5569 69.88C65.4209 68.8827 65.1263 68.0213 64.6729 67.296C64.2196 66.5253 63.6076 65.936 62.8369 65.528C62.0663 65.0747 61.0463 64.8933 59.7769 64.984C58.4623 65.0747 57.4196 65.4373 56.6489 66.072C55.8783 66.6613 55.2889 67.432 54.8809 68.384C54.5183 69.2907 54.2689 70.3107 54.1329 71.444C54.0423 72.532 53.9969 73.5973 53.9969 74.64V93H44.4089V57.164H53.5889L54.0649 61.788ZM125.123 88.58C123.763 90.3933 122.109 91.6853 120.159 92.456C118.21 93.2267 115.943 93.5893 113.359 93.544C110.05 93.4533 107.285 92.524 105.063 90.756C103.885 89.7587 102.955 88.58 102.275 87.22C101.641 85.8147 101.323 84.16 101.323 82.256C101.369 80.3067 101.799 78.584 102.615 77.088C103.477 75.5467 104.769 74.2773 106.491 73.28C107.942 72.5093 109.574 71.9653 111.387 71.648C113.246 71.3307 115.263 71.172 117.439 71.172H124.783C124.919 68.9507 124.398 67.296 123.219 66.208C122.086 65.0747 120.477 64.4853 118.391 64.44C117.711 64.44 117.009 64.4853 116.283 64.576C115.558 64.6667 114.878 64.848 114.243 65.12C113.654 65.392 113.133 65.7773 112.679 66.276C112.271 66.7293 111.999 67.296 111.863 67.976H102.003C102.23 65.8 102.819 63.9867 103.771 62.536C104.769 61.04 106.015 59.8387 107.511 58.932C109.007 58.0253 110.662 57.3907 112.475 57.028C114.334 56.62 116.238 56.416 118.187 56.416C119.275 56.416 120.386 56.484 121.519 56.62C122.653 56.7107 123.763 56.9373 124.851 57.3C125.939 57.6173 126.959 58.0707 127.911 58.66C128.909 59.204 129.838 59.9293 130.699 60.836C132.241 62.604 133.193 64.644 133.555 66.956C133.963 69.2227 134.145 71.444 134.099 73.62V93H125.327L125.123 88.58ZM124.783 77.156H117.779C117.099 77.156 116.329 77.224 115.467 77.36C114.606 77.496 113.858 77.7453 113.223 78.108C112.589 78.4707 112.045 78.9467 111.591 79.536C111.183 80.1253 110.979 80.8507 110.979 81.712C110.979 82.4373 111.115 83.072 111.387 83.616C111.705 84.16 112.09 84.6133 112.543 84.976C113.042 85.3387 113.631 85.6333 114.311 85.86C114.991 86.0413 115.671 86.132 116.351 86.132C117.666 86.1773 118.89 85.9507 120.023 85.452C121.202 84.9533 122.222 84.2507 123.083 83.344C123.627 82.6187 124.035 81.8027 124.307 80.896C124.625 79.944 124.783 78.6973 124.783 77.156ZM149.62 61.652C151.07 59.9293 152.612 58.6373 154.244 57.776C155.921 56.9147 157.916 56.484 160.228 56.484C160.817 56.484 161.384 56.5067 161.928 56.552C162.472 56.5973 162.97 56.6653 163.424 56.756V65.596C162.381 65.596 161.316 65.6187 160.228 65.664C159.185 65.664 158.188 65.7547 157.236 65.936C156.284 66.1173 155.354 66.412 154.448 66.82C153.586 67.1827 152.816 67.7267 152.136 68.452C151.093 69.6307 150.436 70.9 150.164 72.26C149.937 73.62 149.824 75.1613 149.824 76.884V93H140.236V57.164H149.076L149.62 61.652ZM184.511 84.976C185.237 84.976 186.053 84.84 186.959 84.568C187.866 84.296 188.659 83.956 189.339 83.548L192.059 90.824C191.425 91.232 190.699 91.6173 189.883 91.98C189.113 92.2973 188.251 92.592 187.299 92.864C186.393 93.0907 185.531 93.2493 184.715 93.34C183.899 93.4307 183.151 93.476 182.471 93.476C180.295 93.476 178.369 93.1813 176.691 92.592C175.059 92.0027 173.699 91.1187 172.611 89.94C171.614 88.9427 170.866 87.6507 170.367 86.064C169.914 84.4773 169.687 82.6867 169.687 80.692V65.528H164.247V57.164H169.687V47.372H179.275V57.164H189.815V65.528H179.275V78.448C179.275 79.264 179.321 80.0573 179.411 80.828C179.547 81.5533 179.797 82.2333 180.159 82.868C180.567 83.5027 181.111 84.024 181.791 84.432C182.517 84.7947 183.423 84.976 184.511 84.976ZM221.316 61.992C222.721 60.2693 224.466 58.932 226.552 57.98C228.682 56.9827 230.813 56.4613 232.944 56.416C235.482 56.3707 237.84 56.824 240.016 57.776C242.192 58.6827 244.005 60.224 245.456 62.4C246.634 63.9867 247.496 65.8453 248.04 67.976C248.584 70.1067 248.856 72.3507 248.856 74.708C248.856 77.6547 248.493 80.3293 247.768 82.732C247.088 85.0893 245.909 87.1293 244.232 88.852C242.826 90.3933 241.104 91.572 239.064 92.388C237.024 93.1587 234.984 93.544 232.944 93.544C231.946 93.544 230.949 93.476 229.952 93.34C228.954 93.2493 227.957 93.0453 226.96 92.728C225.962 92.4107 224.965 91.9573 223.968 91.368C223.016 90.7787 222.109 89.9853 221.248 88.988V107.96H211.66V57.164H220.772L221.316 61.992ZM230.292 64.984C228.886 64.984 227.617 65.256 226.484 65.8C225.396 66.2987 224.466 67.0013 223.696 67.908C222.925 68.8147 222.313 69.8573 221.86 71.036C221.452 72.2147 221.248 73.484 221.248 74.844C221.202 77.8813 221.996 80.3293 223.628 82.188C225.305 84.0013 227.572 84.9533 230.428 85.044C231.969 85.044 233.284 84.7947 234.372 84.296C235.46 83.7973 236.344 83.0947 237.024 82.188C237.749 81.2813 238.293 80.216 238.656 78.992C239.064 77.768 239.268 76.4307 239.268 74.98C239.268 73.5747 239.064 72.26 238.656 71.036C238.293 69.812 237.726 68.7467 236.956 67.84C236.23 66.9333 235.324 66.2307 234.236 65.732C233.148 65.2333 231.833 64.984 230.292 64.984ZM269.983 85.724C271.343 85.724 272.499 85.52 273.451 85.112C274.448 84.6587 275.264 83.9333 275.899 82.936H285.963C285.464 84.7947 284.694 86.404 283.651 87.764C282.654 89.124 281.43 90.2347 279.979 91.096C278.574 91.9573 277.01 92.592 275.287 93C273.564 93.3627 271.751 93.544 269.847 93.544C264.044 93.544 259.647 91.912 256.655 88.648C253.708 85.384 252.235 80.8053 252.235 74.912C252.235 72.2373 252.62 69.7667 253.391 67.5C254.207 65.2333 255.34 63.284 256.791 61.652C258.242 59.9747 260.032 58.6827 262.163 57.776C264.339 56.8693 266.81 56.416 269.575 56.416C272.794 56.416 275.582 56.9827 277.939 58.116C280.296 59.2493 282.155 60.8133 283.515 62.808C284.92 64.7573 285.85 67.0467 286.303 69.676C286.802 72.3053 286.802 75.116 286.303 78.108H261.823C262.004 80.2387 262.752 82.052 264.067 83.548C265.382 84.9987 267.354 85.724 269.983 85.724ZM277.395 71.512C277.395 70.3787 277.191 69.3813 276.783 68.52C276.375 67.6133 275.831 66.888 275.151 66.344C274.471 65.7547 273.655 65.324 272.703 65.052C271.796 64.78 270.844 64.644 269.847 64.644C267.444 64.6893 265.563 65.3467 264.203 66.616C262.888 67.84 262.118 69.472 261.891 71.512H277.395ZM308.209 93.544C302.406 93.544 297.941 91.912 294.813 88.648C291.685 85.3387 290.121 80.76 290.121 74.912C290.121 72.1013 290.529 69.5627 291.345 67.296C292.206 64.984 293.385 63.012 294.881 61.38C296.422 59.748 298.304 58.524 300.525 57.708C302.792 56.8467 305.353 56.416 308.209 56.416C311.02 56.416 313.536 56.8467 315.757 57.708C318.024 58.524 319.928 59.748 321.469 61.38C323.056 63.012 324.257 64.984 325.073 67.296C325.934 69.5627 326.365 72.1013 326.365 74.912C326.365 80.8053 324.778 85.384 321.605 88.648C318.477 91.912 314.012 93.544 308.209 93.544ZM308.209 64.984C305.262 64.984 303.086 65.936 301.681 67.84C300.276 69.744 299.573 72.124 299.573 74.98C299.573 77.8813 300.276 80.284 301.681 82.188C303.086 84.092 305.262 85.044 308.209 85.044C311.156 85.044 313.309 84.092 314.669 82.188C316.029 80.284 316.709 77.8813 316.709 74.98C316.709 72.124 316.029 69.744 314.669 67.84C313.309 65.936 311.156 64.984 308.209 64.984ZM340.818 61.992C342.223 60.2693 343.968 58.932 346.054 57.98C348.184 56.9827 350.315 56.4613 352.446 56.416C354.984 56.3707 357.342 56.824 359.518 57.776C361.694 58.6827 363.507 60.224 364.958 62.4C366.136 63.9867 366.998 65.8453 367.542 67.976C368.086 70.1067 368.358 72.3507 368.358 74.708C368.358 77.6547 367.995 80.3293 367.27 82.732C366.59 85.0893 365.411 87.1293 363.734 88.852C362.328 90.3933 360.606 91.572 358.566 92.388C356.526 93.1587 354.486 93.544 352.446 93.544C351.448 93.544 350.451 93.476 349.454 93.34C348.456 93.2493 347.459 93.0453 346.462 92.728C345.464 92.4107 344.467 91.9573 343.47 91.368C342.518 90.7787 341.611 89.9853 340.75 88.988V107.96H331.162V57.164H340.274L340.818 61.992ZM349.794 64.984C348.388 64.984 347.119 65.256 345.986 65.8C344.898 66.2987 343.968 67.0013 343.198 67.908C342.427 68.8147 341.815 69.8573 341.362 71.036C340.954 72.2147 340.75 73.484 340.75 74.844C340.704 77.8813 341.498 80.3293 343.13 82.188C344.807 84.0013 347.074 84.9533 349.93 85.044C351.471 85.044 352.786 84.7947 353.874 84.296C354.962 83.7973 355.846 83.0947 356.526 82.188C357.251 81.2813 357.795 80.216 358.158 78.992C358.566 77.768 358.77 76.4307 358.77 74.98C358.77 73.5747 358.566 72.26 358.158 71.036C357.795 69.812 357.228 68.7467 356.458 67.84C355.732 66.9333 354.826 66.2307 353.738 65.732C352.65 65.2333 351.335 64.984 349.794 64.984ZM382.753 93H373.165V44.856H382.753V93ZM405.324 85.724C406.684 85.724 407.84 85.52 408.792 85.112C409.79 84.6587 410.606 83.9333 411.24 82.936H421.304C420.806 84.7947 420.035 86.404 418.992 87.764C417.995 89.124 416.771 90.2347 415.32 91.096C413.915 91.9573 412.351 92.592 410.628 93C408.906 93.3627 407.092 93.544 405.188 93.544C399.386 93.544 394.988 91.912 391.996 88.648C389.05 85.384 387.576 80.8053 387.576 74.912C387.576 72.2373 387.962 69.7667 388.732 67.5C389.548 65.2333 390.682 63.284 392.132 61.652C393.583 59.9747 395.374 58.6827 397.504 57.776C399.68 56.8693 402.151 56.416 404.916 56.416C408.135 56.416 410.923 56.9827 413.28 58.116C415.638 59.2493 417.496 60.8133 418.856 62.808C420.262 64.7573 421.191 67.0467 421.644 69.676C422.143 72.3053 422.143 75.116 421.644 78.108H397.164C397.346 80.2387 398.094 82.052 399.408 83.548C400.723 84.9987 402.695 85.724 405.324 85.724ZM412.736 71.512C412.736 70.3787 412.532 69.3813 412.124 68.52C411.716 67.6133 411.172 66.888 410.492 66.344C409.812 65.7547 408.996 65.324 408.044 65.052C407.138 64.78 406.186 64.644 405.188 64.644C402.786 64.6893 400.904 65.3467 399.544 66.616C398.23 67.84 397.459 69.472 397.232 71.512H412.736ZM432.738 81.712C434.461 81.712 435.866 82.2333 436.954 83.276C438.042 84.3187 438.586 85.792 438.586 87.696C438.586 89.6 438.042 91.0507 436.954 92.048C435.866 93.0453 434.461 93.544 432.738 93.544C431.016 93.544 429.588 93.0453 428.454 92.048C427.366 91.0507 426.822 89.6 426.822 87.696C426.822 85.792 427.366 84.3187 428.454 83.276C429.588 82.2333 431.016 81.712 432.738 81.712ZM3.032 161V112.856H24.384C26.6053 112.856 28.6453 113.083 30.504 113.536C32.408 113.989 34.0627 114.805 35.468 115.984C36.6013 116.891 37.5533 118.092 38.324 119.588C39.14 121.039 39.548 122.807 39.548 124.892C39.5933 127.113 39.1853 129.085 38.324 130.808C37.508 132.531 36.1027 133.981 34.108 135.16C35.5133 135.568 36.7147 136.18 37.712 136.996C38.7093 137.812 39.5027 138.764 40.092 139.852C40.7267 140.94 41.18 142.119 41.452 143.388C41.724 144.657 41.8373 145.972 41.792 147.332C41.7013 149.508 41.112 151.525 40.024 153.384C38.9813 155.197 37.5987 156.671 35.876 157.804C33.836 159.209 31.592 160.093 29.144 160.456C26.696 160.819 24.2707 161 21.868 161H3.032ZM21.596 132.372C22.5933 132.372 23.5907 132.327 24.588 132.236C25.5853 132.1 26.5147 131.783 27.376 131.284C28.1013 130.831 28.7133 130.219 29.212 129.448C29.7107 128.677 29.9827 127.771 30.028 126.728C30.0733 125.64 29.892 124.756 29.484 124.076C29.076 123.396 28.5773 122.875 27.988 122.512C27.2627 122.059 26.424 121.809 25.472 121.764C24.52 121.673 23.5453 121.628 22.548 121.628H12.892V132.372H21.596ZM12.892 152.296H21.868C23.1827 152.296 24.5653 152.228 26.016 152.092C27.512 151.911 28.7813 151.435 29.824 150.664C30.4587 150.165 30.98 149.553 31.388 148.828C31.796 148.057 32 147.105 32 145.972C32 144.929 31.7733 144.045 31.32 143.32C30.8667 142.595 30.3 142.051 29.62 141.688C28.8493 141.189 27.9653 140.895 26.968 140.804C26.016 140.713 25.0187 140.668 23.976 140.668L12.892 140.736V152.296ZM63.4596 161.544C57.6569 161.544 53.1916 159.912 50.0636 156.648C46.9356 153.339 45.3716 148.76 45.3716 142.912C45.3716 140.101 45.7796 137.563 46.5956 135.296C47.4569 132.984 48.6356 131.012 50.1316 129.38C51.6729 127.748 53.5542 126.524 55.7756 125.708C58.0422 124.847 60.6036 124.416 63.4596 124.416C66.2702 124.416 68.7862 124.847 71.0076 125.708C73.2742 126.524 75.1782 127.748 76.7196 129.38C78.3062 131.012 79.5076 132.984 80.3236 135.296C81.1849 137.563 81.6156 140.101 81.6156 142.912C81.6156 148.805 80.0289 153.384 76.8556 156.648C73.7276 159.912 69.2622 161.544 63.4596 161.544ZM63.4596 132.984C60.5129 132.984 58.3369 133.936 56.9316 135.84C55.5262 137.744 54.8236 140.124 54.8236 142.98C54.8236 145.881 55.5262 148.284 56.9316 150.188C58.3369 152.092 60.5129 153.044 63.4596 153.044C66.4062 153.044 68.5596 152.092 69.9196 150.188C71.2796 148.284 71.9596 145.881 71.9596 142.98C71.9596 140.124 71.2796 137.744 69.9196 135.84C68.5596 133.936 66.4062 132.984 63.4596 132.984ZM96.0002 161H86.4122V112.856H96.0002V161ZM128.567 156.988C127.117 158.529 125.485 159.663 123.671 160.388C121.903 161.068 119.75 161.453 117.211 161.544C114.854 161.544 112.678 161.181 110.683 160.456C108.689 159.685 106.966 158.552 105.515 157.056C103.793 155.243 102.569 153.135 101.843 150.732C101.163 148.329 100.823 145.881 100.823 143.388C100.823 137.54 102.455 132.848 105.719 129.312C107.17 127.771 108.983 126.569 111.159 125.708C113.335 124.847 115.806 124.416 118.571 124.416C120.657 124.416 122.515 124.733 124.147 125.368C125.825 125.957 127.23 126.841 128.363 128.02V112.856H138.019V161H129.111L128.567 156.988ZM119.455 153.044C122.357 152.953 124.555 151.979 126.051 150.12C127.593 148.216 128.363 145.881 128.363 143.116C128.363 140.124 127.593 137.699 126.051 135.84C124.51 133.981 122.266 133.029 119.319 132.984C117.823 132.984 116.509 133.233 115.375 133.732C114.287 134.231 113.358 134.956 112.587 135.908C111.862 136.815 111.318 137.88 110.955 139.104C110.593 140.283 110.411 141.575 110.411 142.98C110.411 144.476 110.593 145.836 110.955 147.06C111.318 148.239 111.862 149.281 112.587 150.188C113.358 151.095 114.31 151.797 115.443 152.296C116.622 152.795 117.959 153.044 119.455 153.044ZM166.46 108.504C168.228 108.504 169.656 109.025 170.744 110.068C171.832 111.111 172.376 112.493 172.376 114.216C172.376 116.029 171.832 117.457 170.744 118.5C169.656 119.497 168.228 119.996 166.46 119.996C164.738 119.996 163.31 119.497 162.176 118.5C161.088 117.457 160.544 116.029 160.544 114.216C160.544 112.493 161.088 111.111 162.176 110.068C163.31 109.025 164.738 108.504 166.46 108.504ZM171.288 161H161.7V125.164H171.288V161ZM204.374 156.988C202.923 158.529 201.291 159.663 199.478 160.388C197.71 161.068 195.557 161.453 193.018 161.544C190.661 161.544 188.485 161.181 186.49 160.456C184.495 159.685 182.773 158.552 181.322 157.056C179.599 155.243 178.375 153.135 177.65 150.732C176.97 148.329 176.63 145.881 176.63 143.388C176.63 137.54 178.262 132.848 181.526 129.312C182.977 127.771 184.79 126.569 186.966 125.708C189.142 124.847 191.613 124.416 194.378 124.416C196.463 124.416 198.322 124.733 199.954 125.368C201.631 125.957 203.037 126.841 204.17 128.02V112.856H213.826V161H204.918L204.374 156.988ZM195.262 153.044C198.163 152.953 200.362 151.979 201.858 150.12C203.399 148.216 204.17 145.881 204.17 143.116C204.17 140.124 203.399 137.699 201.858 135.84C200.317 133.981 198.073 133.029 195.126 132.984C193.63 132.984 192.315 133.233 191.182 133.732C190.094 134.231 189.165 134.956 188.394 135.908C187.669 136.815 187.125 137.88 186.762 139.104C186.399 140.283 186.218 141.575 186.218 142.98C186.218 144.476 186.399 145.836 186.762 147.06C187.125 148.239 187.669 149.281 188.394 150.188C189.165 151.095 190.117 151.797 191.25 152.296C192.429 152.795 193.766 153.044 195.262 153.044ZM236.315 153.724C237.675 153.724 238.831 153.52 239.783 153.112C240.78 152.659 241.596 151.933 242.231 150.936H252.295C251.796 152.795 251.026 154.404 249.983 155.764C248.986 157.124 247.762 158.235 246.311 159.096C244.906 159.957 243.342 160.592 241.619 161C239.896 161.363 238.083 161.544 236.179 161.544C230.376 161.544 225.979 159.912 222.987 156.648C220.04 153.384 218.567 148.805 218.567 142.912C218.567 140.237 218.952 137.767 219.723 135.5C220.539 133.233 221.672 131.284 223.123 129.652C224.574 127.975 226.364 126.683 228.495 125.776C230.671 124.869 233.142 124.416 235.907 124.416C239.126 124.416 241.914 124.983 244.271 126.116C246.628 127.249 248.487 128.813 249.847 130.808C251.252 132.757 252.182 135.047 252.635 137.676C253.134 140.305 253.134 143.116 252.635 146.108H228.155C228.336 148.239 229.084 150.052 230.399 151.548C231.714 152.999 233.686 153.724 236.315 153.724ZM243.727 139.512C243.727 138.379 243.523 137.381 243.115 136.52C242.707 135.613 242.163 134.888 241.483 134.344C240.803 133.755 239.987 133.324 239.035 133.052C238.128 132.78 237.176 132.644 236.179 132.644C233.776 132.689 231.895 133.347 230.535 134.616C229.22 135.84 228.45 137.472 228.223 139.512H243.727ZM280.389 156.58C279.029 158.393 277.374 159.685 275.425 160.456C273.476 161.227 271.209 161.589 268.625 161.544C265.316 161.453 262.55 160.524 260.329 158.756C259.15 157.759 258.221 156.58 257.541 155.22C256.906 153.815 256.589 152.16 256.589 150.256C256.634 148.307 257.065 146.584 257.881 145.088C258.742 143.547 260.034 142.277 261.757 141.28C263.208 140.509 264.84 139.965 266.653 139.648C268.512 139.331 270.529 139.172 272.705 139.172H280.049C280.185 136.951 279.664 135.296 278.485 134.208C277.352 133.075 275.742 132.485 273.657 132.44C272.977 132.44 272.274 132.485 271.549 132.576C270.824 132.667 270.144 132.848 269.509 133.12C268.92 133.392 268.398 133.777 267.945 134.276C267.537 134.729 267.265 135.296 267.129 135.976H257.269C257.496 133.8 258.085 131.987 259.037 130.536C260.034 129.04 261.281 127.839 262.777 126.932C264.273 126.025 265.928 125.391 267.741 125.028C269.6 124.62 271.504 124.416 273.453 124.416C274.541 124.416 275.652 124.484 276.785 124.62C277.918 124.711 279.029 124.937 280.117 125.3C281.205 125.617 282.225 126.071 283.177 126.66C284.174 127.204 285.104 127.929 285.965 128.836C287.506 130.604 288.458 132.644 288.821 134.956C289.229 137.223 289.41 139.444 289.365 141.62V161H280.593L280.389 156.58ZM280.049 145.156H273.045C272.365 145.156 271.594 145.224 270.733 145.36C269.872 145.496 269.124 145.745 268.489 146.108C267.854 146.471 267.31 146.947 266.857 147.536C266.449 148.125 266.245 148.851 266.245 149.712C266.245 150.437 266.381 151.072 266.653 151.616C266.97 152.16 267.356 152.613 267.809 152.976C268.308 153.339 268.897 153.633 269.577 153.86C270.257 154.041 270.937 154.132 271.617 154.132C272.932 154.177 274.156 153.951 275.289 153.452C276.468 152.953 277.488 152.251 278.349 151.344C278.893 150.619 279.301 149.803 279.573 148.896C279.89 147.944 280.049 146.697 280.049 145.156ZM308.694 132.1C308.014 132.1 307.356 132.145 306.722 132.236C306.132 132.327 305.588 132.485 305.09 132.712C304.591 132.893 304.183 133.211 303.866 133.664C303.548 134.072 303.412 134.616 303.458 135.296C303.503 136.067 303.798 136.679 304.342 137.132C304.931 137.585 305.747 137.948 306.79 138.22C307.787 138.492 308.898 138.764 310.122 139.036C311.346 139.263 312.547 139.512 313.726 139.784C314.904 140.056 316.06 140.373 317.194 140.736C318.327 141.099 319.324 141.552 320.186 142.096C321.364 142.821 322.339 143.841 323.11 145.156C323.88 146.471 324.243 148.08 324.198 149.984C324.198 151.843 323.88 153.452 323.246 154.812C322.656 156.127 321.84 157.26 320.798 158.212C319.483 159.391 317.828 160.252 315.834 160.796C313.839 161.295 311.822 161.544 309.782 161.544C307.424 161.544 305.248 161.295 303.254 160.796C301.304 160.297 299.514 159.413 297.882 158.144C296.703 157.192 295.706 156.036 294.89 154.676C294.119 153.271 293.666 151.593 293.53 149.644H303.186C303.458 151.185 304.206 152.251 305.43 152.84C306.699 153.429 308.195 153.724 309.918 153.724C310.416 153.724 310.938 153.701 311.482 153.656C312.071 153.565 312.592 153.429 313.046 153.248C313.544 153.021 313.952 152.704 314.27 152.296C314.632 151.843 314.814 151.367 314.814 150.868C314.859 149.689 314.451 148.851 313.59 148.352C312.774 147.853 311.89 147.513 310.938 147.332C309.986 147.105 308.966 146.879 307.878 146.652C306.79 146.425 305.702 146.199 304.614 145.972C303.571 145.745 302.528 145.473 301.486 145.156C300.443 144.793 299.491 144.317 298.63 143.728C297.315 142.912 296.204 141.824 295.298 140.464C294.436 139.104 294.074 137.313 294.21 135.092C294.3 133.143 294.776 131.488 295.638 130.128C296.544 128.723 297.655 127.612 298.97 126.796C300.33 125.935 301.848 125.323 303.526 124.96C305.248 124.597 306.994 124.416 308.762 124.416C310.711 124.416 312.547 124.62 314.27 125.028C315.992 125.436 317.488 126.093 318.758 127C320.072 127.907 321.115 129.085 321.886 130.536C322.702 131.987 323.155 133.755 323.246 135.84H313.998C313.816 134.344 313.227 133.347 312.23 132.848C311.278 132.349 310.099 132.1 308.694 132.1ZM334.388 149.712C336.111 149.712 337.516 150.233 338.604 151.276C339.692 152.319 340.236 153.792 340.236 155.696C340.236 157.6 339.692 159.051 338.604 160.048C337.516 161.045 336.111 161.544 334.388 161.544C332.665 161.544 331.237 161.045 330.104 160.048C329.016 159.051 328.472 157.6 328.472 155.696C328.472 153.792 329.016 152.319 330.104 151.276C331.237 150.233 332.665 149.712 334.388 149.712ZM22.276 180.856C23.5453 180.856 24.8147 180.901 26.084 180.992C27.3533 181.037 28.6 181.196 29.824 181.468C31.048 181.74 32.2267 182.148 33.36 182.692C34.5387 183.191 35.6267 183.893 36.624 184.8C38.2107 186.251 39.344 187.996 40.024 190.036C40.704 192.031 41.0213 194.071 40.976 196.156C40.9307 198.967 40.432 201.347 39.48 203.296C38.5733 205.245 37.3267 206.9 35.74 208.26C34.2893 209.439 32.612 210.277 30.708 210.776L41.384 229H30.368L20.644 211.728H12.96V229H3.1V180.856H22.276ZM22.344 203.432C23.568 203.432 24.724 203.319 25.812 203.092C26.9 202.865 27.8293 202.503 28.6 202.004C29.416 201.46 30.0507 200.757 30.504 199.896C31.0027 198.989 31.2747 197.856 31.32 196.496C31.3653 195.045 31.1613 193.867 30.708 192.96C30.2547 192.053 29.62 191.351 28.804 190.852C28.0333 190.353 27.104 190.036 26.016 189.9C24.9733 189.719 23.8173 189.628 22.548 189.628H12.96V203.432H22.344ZM62.2563 221.724C63.6163 221.724 64.7723 221.52 65.7243 221.112C66.7216 220.659 67.5376 219.933 68.1723 218.936H78.2363C77.7376 220.795 76.9669 222.404 75.9243 223.764C74.9269 225.124 73.7029 226.235 72.2523 227.096C70.8469 227.957 69.2829 228.592 67.5603 229C65.8376 229.363 64.0243 229.544 62.1203 229.544C56.3176 229.544 51.9203 227.912 48.9283 224.648C45.9816 221.384 44.5083 216.805 44.5083 210.912C44.5083 208.237 44.8936 205.767 45.6643 203.5C46.4803 201.233 47.6136 199.284 49.0643 197.652C50.5149 195.975 52.3056 194.683 54.4363 193.776C56.6123 192.869 59.0829 192.416 61.8483 192.416C65.0669 192.416 67.8549 192.983 70.2123 194.116C72.5696 195.249 74.4283 196.813 75.7883 198.808C77.1936 200.757 78.1229 203.047 78.5763 205.676C79.0749 208.305 79.0749 211.116 78.5763 214.108H54.0963C54.2776 216.239 55.0256 218.052 56.3403 219.548C57.6549 220.999 59.6269 221.724 62.2563 221.724ZM69.6683 207.512C69.6683 206.379 69.4643 205.381 69.0563 204.52C68.6483 203.613 68.1043 202.888 67.4243 202.344C66.7443 201.755 65.9283 201.324 64.9763 201.052C64.0696 200.78 63.1176 200.644 62.1203 200.644C59.7176 200.689 57.8363 201.347 56.4763 202.616C55.1616 203.84 54.3909 205.472 54.1643 207.512H69.6683ZM106.33 224.58C104.97 226.393 103.316 227.685 101.366 228.456C99.417 229.227 97.1504 229.589 94.5664 229.544C91.257 229.453 88.4917 228.524 86.2704 226.756C85.0917 225.759 84.1624 224.58 83.4824 223.22C82.8477 221.815 82.5304 220.16 82.5304 218.256C82.5757 216.307 83.0064 214.584 83.8224 213.088C84.6837 211.547 85.9757 210.277 87.6984 209.28C89.149 208.509 90.781 207.965 92.5944 207.648C94.453 207.331 96.4704 207.172 98.6464 207.172H105.99C106.126 204.951 105.605 203.296 104.426 202.208C103.293 201.075 101.684 200.485 99.5984 200.44C98.9184 200.44 98.2157 200.485 97.4904 200.576C96.765 200.667 96.085 200.848 95.4504 201.12C94.861 201.392 94.3397 201.777 93.8864 202.276C93.4784 202.729 93.2064 203.296 93.0704 203.976H83.2104C83.437 201.8 84.0264 199.987 84.9784 198.536C85.9757 197.04 87.2224 195.839 88.7184 194.932C90.2144 194.025 91.869 193.391 93.6824 193.028C95.541 192.62 97.445 192.416 99.3944 192.416C100.482 192.416 101.593 192.484 102.726 192.62C103.86 192.711 104.97 192.937 106.058 193.3C107.146 193.617 108.166 194.071 109.118 194.66C110.116 195.204 111.045 195.929 111.906 196.836C113.448 198.604 114.4 200.644 114.762 202.956C115.17 205.223 115.352 207.444 115.306 209.62V229H106.534L106.33 224.58ZM105.99 213.156H98.9864C98.3064 213.156 97.5357 213.224 96.6744 213.36C95.813 213.496 95.065 213.745 94.4304 214.108C93.7957 214.471 93.2517 214.947 92.7984 215.536C92.3904 216.125 92.1864 216.851 92.1864 217.712C92.1864 218.437 92.3224 219.072 92.5944 219.616C92.9117 220.16 93.297 220.613 93.7504 220.976C94.249 221.339 94.8384 221.633 95.5184 221.86C96.1984 222.041 96.8784 222.132 97.5584 222.132C98.873 222.177 100.097 221.951 101.23 221.452C102.409 220.953 103.429 220.251 104.29 219.344C104.834 218.619 105.242 217.803 105.514 216.896C105.832 215.944 105.99 214.697 105.99 213.156ZM131.031 229H121.443V180.856H131.031V229ZM170.638 221.044C172.452 221.044 173.88 220.613 174.922 219.752C176.01 218.891 176.668 217.916 176.894 216.828H186.958C186.641 219.14 185.984 221.089 184.986 222.676C183.989 224.263 182.742 225.577 181.246 226.62C179.796 227.663 178.141 228.411 176.282 228.864C174.424 229.317 172.497 229.544 170.502 229.544C167.51 229.544 164.904 229.136 162.682 228.32C160.506 227.459 158.693 226.235 157.242 224.648C155.792 223.016 154.681 221.067 153.91 218.8C153.185 216.488 152.822 213.904 152.822 211.048C152.822 208.283 153.23 205.744 154.046 203.432C154.862 201.12 156.018 199.148 157.514 197.516C159.056 195.884 160.937 194.637 163.158 193.776C165.38 192.869 167.918 192.416 170.774 192.416C172.86 192.416 174.809 192.665 176.622 193.164C178.481 193.663 180.113 194.433 181.518 195.476C182.969 196.519 184.148 197.856 185.054 199.488C186.006 201.075 186.641 202.979 186.958 205.2H176.894C176.668 204.112 175.988 203.137 174.854 202.276C173.766 201.415 172.338 200.984 170.57 200.984C169.074 200.984 167.782 201.256 166.694 201.8C165.606 202.344 164.745 203.092 164.11 204.044C163.476 204.996 163.022 206.084 162.75 207.308C162.478 208.532 162.342 209.824 162.342 211.184C162.342 212.635 162.501 213.972 162.818 215.196C163.136 216.375 163.612 217.417 164.246 218.324C164.881 219.185 165.72 219.865 166.762 220.364C167.85 220.817 169.142 221.044 170.638 221.044ZM208.132 229.544C202.33 229.544 197.864 227.912 194.736 224.648C191.608 221.339 190.044 216.76 190.044 210.912C190.044 208.101 190.452 205.563 191.268 203.296C192.13 200.984 193.308 199.012 194.804 197.38C196.346 195.748 198.227 194.524 200.448 193.708C202.715 192.847 205.276 192.416 208.132 192.416C210.943 192.416 213.459 192.847 215.68 193.708C217.947 194.524 219.851 195.748 221.392 197.38C222.979 199.012 224.18 200.984 224.996 203.296C225.858 205.563 226.288 208.101 226.288 210.912C226.288 216.805 224.702 221.384 221.528 224.648C218.4 227.912 213.935 229.544 208.132 229.544ZM208.132 200.984C205.186 200.984 203.01 201.936 201.604 203.84C200.199 205.744 199.496 208.124 199.496 210.98C199.496 213.881 200.199 216.284 201.604 218.188C203.01 220.092 205.186 221.044 208.132 221.044C211.079 221.044 213.232 220.092 214.592 218.188C215.952 216.284 216.632 213.881 216.632 210.98C216.632 208.124 215.952 205.744 214.592 203.84C213.232 201.936 211.079 200.984 208.132 200.984ZM240.741 197.72C243.642 194.229 247.224 192.461 251.485 192.416C253.797 192.371 255.837 192.756 257.605 193.572C259.373 194.343 260.801 195.408 261.889 196.768C263.204 198.355 264.11 200.213 264.609 202.344C265.108 204.429 265.357 206.764 265.357 209.348V229H255.701V210.096C255.701 208.827 255.565 207.625 255.293 206.492C255.066 205.313 254.658 204.316 254.069 203.5C253.48 202.639 252.686 202.004 251.689 201.596C250.737 201.188 249.649 200.984 248.425 200.984C246.884 201.029 245.569 201.369 244.481 202.004C243.438 202.639 242.645 203.455 242.101 204.452C241.557 205.404 241.172 206.492 240.945 207.716C240.764 208.895 240.673 210.096 240.673 211.32V229H231.085V193.164H240.265L240.741 197.72ZM281.018 197.72C283.919 194.229 287.5 192.461 291.762 192.416C294.074 192.371 296.114 192.756 297.882 193.572C299.65 194.343 301.078 195.408 302.166 196.768C303.48 198.355 304.387 200.213 304.886 202.344C305.384 204.429 305.634 206.764 305.634 209.348V229H295.978V210.096C295.978 208.827 295.842 207.625 295.57 206.492C295.343 205.313 294.935 204.316 294.346 203.5C293.756 202.639 292.963 202.004 291.966 201.596C291.014 201.188 289.926 200.984 288.702 200.984C287.16 201.029 285.846 201.369 284.758 202.004C283.715 202.639 282.922 203.455 282.378 204.452C281.834 205.404 281.448 206.492 281.222 207.716C281.04 208.895 280.95 210.096 280.95 211.32V229H271.362V193.164H280.542L281.018 197.72ZM327.958 221.724C329.318 221.724 330.474 221.52 331.426 221.112C332.424 220.659 333.24 219.933 333.874 218.936H343.938C343.44 220.795 342.669 222.404 341.626 223.764C340.629 225.124 339.405 226.235 337.954 227.096C336.549 227.957 334.985 228.592 333.262 229C331.54 229.363 329.726 229.544 327.822 229.544C322.02 229.544 317.622 227.912 314.63 224.648C311.684 221.384 310.21 216.805 310.21 210.912C310.21 208.237 310.596 205.767 311.366 203.5C312.182 201.233 313.316 199.284 314.766 197.652C316.217 195.975 318.008 194.683 320.138 193.776C322.314 192.869 324.785 192.416 327.55 192.416C330.769 192.416 333.557 192.983 335.914 194.116C338.272 195.249 340.13 196.813 341.49 198.808C342.896 200.757 343.825 203.047 344.278 205.676C344.777 208.305 344.777 211.116 344.278 214.108H319.798C319.98 216.239 320.728 218.052 322.042 219.548C323.357 220.999 325.329 221.724 327.958 221.724ZM335.37 207.512C335.37 206.379 335.166 205.381 334.758 204.52C334.35 203.613 333.806 202.888 333.126 202.344C332.446 201.755 331.63 201.324 330.678 201.052C329.772 200.78 328.82 200.644 327.822 200.644C325.42 200.689 323.538 201.347 322.178 202.616C320.864 203.84 320.093 205.472 319.866 207.512H335.37ZM366.576 221.044C368.39 221.044 369.818 220.613 370.86 219.752C371.948 218.891 372.606 217.916 372.832 216.828H382.896C382.579 219.14 381.922 221.089 380.924 222.676C379.927 224.263 378.68 225.577 377.184 226.62C375.734 227.663 374.079 228.411 372.22 228.864C370.362 229.317 368.435 229.544 366.44 229.544C363.448 229.544 360.842 229.136 358.62 228.32C356.444 227.459 354.631 226.235 353.18 224.648C351.73 223.016 350.619 221.067 349.848 218.8C349.123 216.488 348.76 213.904 348.76 211.048C348.76 208.283 349.168 205.744 349.984 203.432C350.8 201.12 351.956 199.148 353.452 197.516C354.994 195.884 356.875 194.637 359.096 193.776C361.318 192.869 363.856 192.416 366.712 192.416C368.798 192.416 370.747 192.665 372.56 193.164C374.419 193.663 376.051 194.433 377.456 195.476C378.907 196.519 380.086 197.856 380.992 199.488C381.944 201.075 382.579 202.979 382.896 205.2H372.832C372.606 204.112 371.926 203.137 370.792 202.276C369.704 201.415 368.276 200.984 366.508 200.984C365.012 200.984 363.72 201.256 362.632 201.8C361.544 202.344 360.683 203.092 360.048 204.044C359.414 204.996 358.96 206.084 358.688 207.308C358.416 208.532 358.28 209.824 358.28 211.184C358.28 212.635 358.439 213.972 358.756 215.196C359.074 216.375 359.55 217.417 360.184 218.324C360.819 219.185 361.658 219.865 362.7 220.364C363.788 220.817 365.08 221.044 366.576 221.044ZM399.787 201.528V216.012C399.787 219.095 401.351 220.636 404.479 220.636H408.015V229H403.527C398.767 229.181 395.344 228.275 393.259 226.28C391.219 224.285 390.199 221.271 390.199 217.236V201.528H384.759V193.164H390.199V183.44H399.787V193.164H408.355V201.528H399.787ZM417.452 176.504C419.22 176.504 420.648 177.025 421.736 178.068C422.824 179.111 423.368 180.493 423.368 182.216C423.368 184.029 422.824 185.457 421.736 186.5C420.648 187.497 419.22 187.996 417.452 187.996C415.729 187.996 414.301 187.497 413.168 186.5C412.08 185.457 411.536 184.029 411.536 182.216C411.536 180.493 412.08 179.111 413.168 178.068C414.301 177.025 415.729 176.504 417.452 176.504ZM422.28 229H412.692V193.164H422.28V229ZM445.71 229.544C439.907 229.544 435.442 227.912 432.314 224.648C429.186 221.339 427.622 216.76 427.622 210.912C427.622 208.101 428.03 205.563 428.846 203.296C429.707 200.984 430.886 199.012 432.382 197.38C433.923 195.748 435.805 194.524 438.026 193.708C440.293 192.847 442.854 192.416 445.71 192.416C448.521 192.416 451.037 192.847 453.258 193.708C455.525 194.524 457.429 195.748 458.97 197.38C460.557 199.012 461.758 200.984 462.574 203.296C463.435 205.563 463.866 208.101 463.866 210.912C463.866 216.805 462.279 221.384 459.106 224.648C455.978 227.912 451.513 229.544 445.71 229.544ZM445.71 200.984C442.763 200.984 440.587 201.936 439.182 203.84C437.777 205.744 437.074 208.124 437.074 210.98C437.074 213.881 437.777 216.284 439.182 218.188C440.587 220.092 442.763 221.044 445.71 221.044C448.657 221.044 450.81 220.092 452.17 218.188C453.53 216.284 454.21 213.881 454.21 210.98C454.21 208.124 453.53 205.744 452.17 203.84C450.81 201.936 448.657 200.984 445.71 200.984ZM478.319 197.72C481.22 194.229 484.801 192.461 489.063 192.416C491.375 192.371 493.415 192.756 495.183 193.572C496.951 194.343 498.379 195.408 499.467 196.768C500.781 198.355 501.688 200.213 502.187 202.344C502.685 204.429 502.935 206.764 502.935 209.348V229H493.279V210.096C493.279 208.827 493.143 207.625 492.871 206.492C492.644 205.313 492.236 204.316 491.647 203.5C491.057 202.639 490.264 202.004 489.267 201.596C488.315 201.188 487.227 200.984 486.003 200.984C484.461 201.029 483.147 201.369 482.059 202.004C481.016 202.639 480.223 203.455 479.679 204.452C479.135 205.404 478.749 206.492 478.523 207.716C478.341 208.895 478.251 210.096 478.251 211.32V229H468.663V193.164H477.843L478.319 197.72ZM522.131 200.1C521.451 200.1 520.794 200.145 520.159 200.236C519.57 200.327 519.026 200.485 518.527 200.712C518.029 200.893 517.621 201.211 517.303 201.664C516.986 202.072 516.85 202.616 516.895 203.296C516.941 204.067 517.235 204.679 517.779 205.132C518.369 205.585 519.185 205.948 520.227 206.22C521.225 206.492 522.335 206.764 523.559 207.036C524.783 207.263 525.985 207.512 527.163 207.784C528.342 208.056 529.498 208.373 530.631 208.736C531.765 209.099 532.762 209.552 533.623 210.096C534.802 210.821 535.777 211.841 536.547 213.156C537.318 214.471 537.681 216.08 537.635 217.984C537.635 219.843 537.318 221.452 536.683 222.812C536.094 224.127 535.278 225.26 534.235 226.212C532.921 227.391 531.266 228.252 529.271 228.796C527.277 229.295 525.259 229.544 523.219 229.544C520.862 229.544 518.686 229.295 516.691 228.796C514.742 228.297 512.951 227.413 511.319 226.144C510.141 225.192 509.143 224.036 508.327 222.676C507.557 221.271 507.103 219.593 506.967 217.644H516.623C516.895 219.185 517.643 220.251 518.867 220.84C520.137 221.429 521.633 221.724 523.355 221.724C523.854 221.724 524.375 221.701 524.919 221.656C525.509 221.565 526.03 221.429 526.483 221.248C526.982 221.021 527.39 220.704 527.707 220.296C528.07 219.843 528.251 219.367 528.251 218.868C528.297 217.689 527.889 216.851 527.027 216.352C526.211 215.853 525.327 215.513 524.375 215.332C523.423 215.105 522.403 214.879 521.315 214.652C520.227 214.425 519.139 214.199 518.051 213.972C517.009 213.745 515.966 213.473 514.923 213.156C513.881 212.793 512.929 212.317 512.067 211.728C510.753 210.912 509.642 209.824 508.735 208.464C507.874 207.104 507.511 205.313 507.647 203.092C507.738 201.143 508.214 199.488 509.075 198.128C509.982 196.723 511.093 195.612 512.407 194.796C513.767 193.935 515.286 193.323 516.963 192.96C518.686 192.597 520.431 192.416 522.199 192.416C524.149 192.416 525.985 192.62 527.707 193.028C529.43 193.436 530.926 194.093 532.195 195C533.51 195.907 534.553 197.085 535.323 198.536C536.139 199.987 536.593 201.755 536.683 203.84H527.435C527.254 202.344 526.665 201.347 525.667 200.848C524.715 200.349 523.537 200.1 522.131 200.1ZM547.826 217.712C549.548 217.712 550.954 218.233 552.042 219.276C553.13 220.319 553.674 221.792 553.674 223.696C553.674 225.6 553.13 227.051 552.042 228.048C550.954 229.045 549.548 229.544 547.826 229.544C546.103 229.544 544.675 229.045 543.542 228.048C542.454 227.051 541.91 225.6 541.91 223.696C541.91 221.792 542.454 220.319 543.542 219.276C544.675 218.233 546.103 217.712 547.826 217.712Z" fill="white"/>
    <path d="M380.343 0H375.619V9.43026H380.343V0ZM385.067 14.1454H370.896V18.8605H366.172V28.2908H370.896V37.721H385.067V28.2908H389.791V18.8605H385.067V14.1454ZM385.067 18.8605V28.2908H380.343V33.0059H375.619V28.2908H370.896V18.8605H385.067ZM370.896 42.4362H385.067V47.1513H370.896V42.4362ZM403.963 21.2181V25.9332H394.515V21.2181H403.963ZM361.448 25.9332V21.2181H352V25.9332H361.448ZM389.791 9.43026H394.515V14.1454H389.791V9.43026ZM394.515 9.43026H399.239V4.71513H394.515V9.43026ZM361.448 9.43026H366.172V14.1454H361.448V9.43026ZM361.448 9.43026V4.71513H356.724V9.43026H361.448Z" fill="white"/>
</svg>
