<svg width="38" height="37" viewBox="0 0 38 37" fill="none" xmlns="http://www.w3.org/2000/svg">
<path d="M20.8778 0.114746C22.9278 0.120213 23.9682 0.131146 24.8666 0.156657L25.2201 0.169413C25.6283 0.18399 26.031 0.202213 26.5175 0.224079C28.4564 0.31519 29.7793 0.621324 30.9401 1.07141C32.1427 1.53426 33.1559 2.1611 34.169 3.17244C35.096 4.08306 35.813 5.18503 36.2701 6.40141C36.7202 7.56217 37.0263 8.8851 37.1174 10.8258C37.1393 11.3105 37.1575 11.7132 37.1721 12.1232L37.183 12.4767C37.2103 13.3732 37.2213 14.4137 37.2249 16.4637L37.2267 17.8231V20.2102C37.2312 21.5394 37.2172 22.8685 37.1848 24.1972L37.1739 24.5507C37.1593 24.9607 37.1411 25.3635 37.1192 25.8482C37.0281 27.7888 36.7183 29.1099 36.2701 30.2725C35.813 31.4889 35.096 32.5909 34.169 33.5015C33.2584 34.4285 32.1564 35.1455 30.9401 35.6025C29.7793 36.0526 28.4564 36.3587 26.5175 36.4499L25.2201 36.5045L24.8666 36.5155C23.9682 36.541 22.9278 36.5537 20.8778 36.5574L19.5184 36.5592H17.1331C15.8033 36.5639 14.4736 36.5499 13.1442 36.5173L12.7907 36.5063C12.3582 36.49 11.9257 36.4711 11.4933 36.4499C9.55446 36.3587 8.23153 36.0526 7.06895 35.6025C5.85322 35.1452 4.75189 34.4282 3.8418 33.5015C2.91419 32.5911 2.19653 31.4891 1.73895 30.2725C1.28886 29.1118 0.982731 27.7888 0.89162 25.8482L0.836953 24.5507L0.827842 24.1972C0.794251 22.8685 0.779065 21.5394 0.782286 20.2102V16.4637C0.777243 15.1346 0.790607 13.8055 0.822376 12.4767L0.835131 12.1232C0.849709 11.7132 0.867931 11.3105 0.889798 10.8258C0.980909 8.8851 1.28704 7.56399 1.73713 6.40141C2.19577 5.18453 2.91469 4.08252 3.84362 3.17244C4.75319 2.24592 5.85387 1.52892 7.06895 1.07141C8.23153 0.621324 9.55264 0.31519 11.4933 0.224079C11.978 0.202213 12.3826 0.18399 12.7907 0.169413L13.1442 0.158479C14.473 0.126103 15.8021 0.112132 17.1313 0.116568L20.8778 0.114746ZM19.0045 9.22586C16.5881 9.22586 14.2706 10.1858 12.562 11.8944C10.8533 13.6031 9.8934 15.9206 9.8934 18.337C9.8934 20.7534 10.8533 23.0708 12.562 24.7795C14.2706 26.4882 16.5881 27.4481 19.0045 27.4481C21.4209 27.4481 23.7384 26.4882 25.447 24.7795C27.1557 23.0708 28.1156 20.7534 28.1156 18.337C28.1156 15.9206 27.1557 13.6031 25.447 11.8944C23.7384 10.1858 21.4209 9.22586 19.0045 9.22586ZM19.0045 12.8703C19.7224 12.8702 20.4333 13.0115 21.0966 13.2861C21.7599 13.5607 22.3626 13.9633 22.8703 14.4708C23.378 14.9783 23.7808 15.5809 24.0556 16.2441C24.3305 16.9073 24.472 17.6182 24.4721 18.3361C24.4722 19.054 24.3309 19.7648 24.0563 20.4281C23.7817 21.0914 23.3791 21.6941 22.8716 22.2018C22.364 22.7096 21.7615 23.1123 21.0983 23.3872C20.4351 23.662 19.7242 23.8035 19.0063 23.8036C17.5565 23.8036 16.166 23.2277 15.1408 22.2025C14.1156 21.1773 13.5397 19.7868 13.5397 18.337C13.5397 16.8871 14.1156 15.4966 15.1408 14.4715C16.166 13.4463 17.5565 12.8703 19.0063 12.8703M28.573 6.49252C27.9689 6.49252 27.3895 6.7325 26.9624 7.15967C26.5352 7.58684 26.2952 8.1662 26.2952 8.7703C26.2952 9.37441 26.5352 9.95377 26.9624 10.3809C27.3895 10.8081 27.9689 11.0481 28.573 11.0481C29.1771 11.0481 29.7565 10.8081 30.1836 10.3809C30.6108 9.95377 30.8508 9.37441 30.8508 8.7703C30.8508 8.1662 30.6108 7.58684 30.1836 7.15967C29.7565 6.7325 29.1771 6.49252 28.573 6.49252Z" fill="white"/>
</svg>
