<?xml version="1.0" encoding="UTF-8" standalone="no"?>
<svg
   xmlns:dc="http://purl.org/dc/elements/1.1/"
   xmlns:cc="http://creativecommons.org/ns#"
   xmlns:rdf="http://www.w3.org/1999/02/22-rdf-syntax-ns#" xmlns="http://www.w3.org/2000/svg"
   xmlns:sodipodi="http://sodipodi.sourceforge.net/DTD/sodipodi-0.dtd"
   xmlns:inkscape="http://www.inkscape.org/namespaces/inkscape"
   width="3233"
   height="558"
   viewBox="0 0 3233 558"
   fill="none"
   version="1.1"
   id="svg46"
>
  <metadata
     id="metadata50">
    <rdf:RDF>
      <cc:Work
         rdf:about="">
        <dc:format>image/svg+xml</dc:format>
        <dc:type
           rdf:resource="http://purl.org/dc/dcmitype/StillImage" />
      </cc:Work>
    </rdf:RDF>
  </metadata>
  <sodipodi:namedview
     pagecolor="#ffffff"
     bordercolor="#666666"
     borderopacity="1"
     objecttolerance="10"
     gridtolerance="10"
     guidetolerance="10"
     inkscape:pageopacity="0"
     inkscape:pageshadow="2"
     inkscape:window-width="784"
     inkscape:window-height="480"
     id="namedview48"
     showgrid="false"
     inkscape:zoom="0.13204229"
     inkscape:cx="1616.5"
     inkscape:cy="279"
     inkscape:window-x="0"
     inkscape:window-y="0"
     inkscape:window-maximized="0"
     inkscape:current-layer="svg46" />
  <g
     clip-path="url(#clip0_516_80)"
     id="g34">
    <path
       fill-rule="evenodd"
       clip-rule="evenodd"
       d="M304.617 208.832C329.222 208.832 349.168 228.778 349.168 253.383V541.946C349.168 550.812 341.98 558 333.114 558C289.369 558 242.175 554.572 199.922 543.242C150.081 529.877 110.568 503.172 79.6347 472.239C48.7022 441.307 25.3383 404.021 13.3653 362.811C1.16023 320.803 -4.34599e-06 268.631 0 224.886C8.80012e-07 216.019 7.18746 208.832 16.0537 208.832H304.617Z"
       fill="#00D6E7"
       id="path2" />
    <path
       fill-rule="evenodd"
       clip-rule="evenodd"
       d="M253.383 349.168C228.778 349.168 208.832 329.222 208.832 304.617V16.0537C208.832 7.18747 216.02 -1.163e-06 224.886 0C268.631 5.736e-06 315.825 3.42724 358.078 14.7575C407.919 28.1228 447.432 54.828 478.365 85.7605C509.297 116.693 532.661 153.979 544.634 195.189C556.839 237.197 558 289.369 558 333.114C558 341.981 550.812 349.168 541.946 349.168H253.383Z"
       fill="#7030A0"
       id="path4" />
    <path
       d="M208.832 208.832H324.108C337.948 208.832 349.167 220.052 349.167 233.892V349.167H233.892C220.052 349.167 208.832 337.948 208.832 324.107V208.832Z"
       fill="url(#paint0_linear_516_80)"
       id="path6" />
    <path
       d="M813.439 428.267H745V131H813.439V428.267Z"
       fill="#222222"
       id="path8" />
    <path
       d="M846.422 193.56V131H1096.24V193.56H1005.55V428.267H937.114V193.56H846.422Z"
       fill="#222222"
       id="path10" />
    <path
       d="M1233.01 282.573C1233.01 293.769 1234.41 304.686 1237.21 315.322C1240.01 325.959 1244.35 335.476 1250.23 343.873C1256.38 352.271 1264.22 359.129 1273.74 364.447C1283.54 369.485 1295.15 372.005 1308.59 372.005C1325.94 372.005 1339.94 368.226 1350.57 360.668C1361.49 353.111 1368.49 342.334 1371.57 328.338H1437.49C1436.09 345.973 1431.61 361.508 1424.05 374.944C1416.49 388.1 1406.84 399.156 1395.08 408.113C1383.32 417.071 1369.89 423.789 1354.77 428.267C1339.66 432.746 1323.98 434.985 1307.75 434.985C1284.51 434.985 1263.94 431.346 1246.03 424.068C1228.11 416.791 1212.86 406.574 1200.26 393.418C1187.95 379.982 1178.57 364.027 1172.13 345.553C1165.69 326.799 1162.47 305.945 1162.47 282.993C1162.47 260.6 1165.83 240.166 1172.55 221.692C1179.27 202.938 1188.78 186.843 1201.1 173.407C1213.7 159.971 1228.95 149.614 1246.87 142.336C1265.06 134.779 1288.32 131 1311 131C1327.79 131 1340.64 133.239 1355.19 137.718C1370.03 141.917 1383.04 148.495 1394.24 157.452C1405.72 166.129 1415.22 178.065 1422.5 191.5H1350C1350 191.5 1328.35 192 1311 192C1297.28 192 1283.26 196.5 1273.74 201.538C1264.22 206.296 1256.38 212.874 1250.23 221.272C1244.35 229.389 1240.01 238.766 1237.21 249.403C1234.41 260.04 1233.01 271.096 1233.01 282.573Z"
       fill="#222222"
       id="path12" />
    <path
       d="M1625.9 131C1648.57 131 1669 134.639 1687.2 141.917C1705.67 148.914 1721.35 159.131 1734.22 172.567C1747.38 185.723 1757.46 201.538 1764.45 220.012C1771.45 238.486 1774.95 259.06 1774.95 281.733C1774.95 304.126 1771.45 324.699 1764.45 343.454C1757.46 362.208 1747.38 378.443 1734.22 392.158C1721.35 405.874 1705.67 416.511 1687.2 424.068C1668.72 431.626 1648.01 435.265 1625.06 434.985C1601.82 434.985 1580.97 431.346 1562.5 424.068C1544.3 416.511 1528.77 406.014 1515.89 392.578C1503.02 379.142 1493.08 363.187 1486.08 344.713C1479.36 325.959 1476 305.386 1476 282.993C1476 260.32 1479.5 239.746 1486.5 221.272C1493.78 202.518 1503.85 186.423 1516.73 172.987C1529.89 159.551 1545.7 149.194 1564.18 141.917C1582.65 134.639 1603.22 131 1625.9 131ZM1546.12 282.573C1546.12 294.049 1547.66 305.106 1550.74 315.742C1554.1 326.379 1559 335.896 1565.44 344.293C1572.15 352.411 1580.55 358.989 1590.63 364.027C1600.7 369.066 1612.74 371.725 1626.74 372.005C1640.17 372.005 1651.79 369.485 1661.59 364.447C1671.38 359.409 1679.5 352.691 1685.94 344.293C1692.38 335.896 1697.13 326.379 1700.21 315.742C1703.29 305.106 1704.83 294.329 1704.83 283.412C1704.83 272.496 1703.29 261.719 1700.21 251.082C1697.41 240.446 1692.8 230.929 1686.36 222.531C1679.92 214.134 1671.66 207.276 1661.59 201.958C1651.79 196.639 1639.89 193.98 1625.9 193.98C1612.18 193.98 1600.28 196.5 1590.21 201.538C1580.13 206.576 1571.87 213.294 1565.44 221.692C1559 229.809 1554.1 239.186 1550.74 249.823C1547.66 260.46 1546.12 271.376 1546.12 282.573Z"
       fill="#222222"
       id="path14" />
    <path
       d="M1878.66 131L2011.76 314.902V131H2080.2V428.267H2015.96L1881.6 245.624V428.267H1813.16V131H1878.66Z"
       fill="#222222"
       id="path16" />
    <path
       d="M2207.5 131L2340.6 314.902V131H2409.04V428.267H2344.8L2210.44 245.624V428.267H2142V131H2207.5Z"
       fill="#222222"
       id="path18" />
    <path
       d="M2690 131V193.56H2540.1V250.662H2667.32V311.543H2540.1V366.546H2690V428.267H2471.66V131H2690Z"
       fill="#222222"
       id="path20" />
    <path
       d="M2789.89 279.05C2789.89 290.246 2791.28 301.163 2794.08 311.799C2796.88 322.436 2801.22 331.953 2807.1 340.35C2813.26 348.748 2821.1 355.606 2830.61 360.924C2840.41 365.962 2852.03 368.482 2865.46 368.482C2882.82 368.482 2896.81 364.703 2907.45 357.145C2918.37 349.588 2925.36 338.811 2928.44 324.815H2994.36C2992.96 342.45 2988.48 357.985 2980.93 371.421C2973.37 384.577 2963.71 395.633 2951.95 404.59C2940.2 413.548 2926.76 420.266 2911.65 424.744C2896.53 429.223 2880.86 431.462 2864.62 431.462C2841.39 431.462 2820.82 427.823 2802.9 420.545C2784.99 413.268 2769.73 403.051 2757.14 389.895C2744.82 376.459 2735.44 360.504 2729 342.03C2722.57 323.276 2719.35 302.422 2719.35 279.47C2719.35 257.077 2722.71 236.643 2729.42 218.169C2736.14 199.415 2745.66 183.32 2757.98 169.884C2770.57 156.448 2785.83 146.091 2803.74 138.813C2821.94 131.256 2842.79 131.256 2865.46 131.256C2882.26 131.256 2897.51 129.716 2912.07 134.195C2926.9 138.394 2939.92 144.972 2951.12 153.929C2962.59 162.606 2971.97 173.663 2979.25 187.098C2982.82 193.816 2982.82 193.816 2982.82 193.816H2943.95C2943.95 193.816 2948.01 193 2919.5 193C2888.38 194.034 2882.99 194.5 2865.5 194.5C2851.78 194.5 2841.5 193.5 2830.61 198.015C2821.1 202.773 2813.26 209.351 2807.1 217.749C2801.22 225.866 2796.88 235.243 2794.08 245.88C2791.28 256.517 2789.89 267.573 2789.89 279.05Z"
       fill="#222222"
       id="path22" />
    <path
       d="M2982.82 193.56V131H3232.64V193.56H3141.95V428.267H3073.51V193.56H2982.82Z"
       fill="#222222"
       id="path24" />
    <path
       d="M3232.85 131H2377.73V194.486H3232.85V131Z"
       fill="#222222"
       id="path26" />
    <path
       d="M2207 131H2013V192H2207V131Z"
       fill="#222222"
       id="path28" />
    <path
       d="M1878.9 131H1612V191.895H1878.9V131Z"
       fill="#222222"
       id="path30" />
    <path
       d="M1616 131H1311V192H1616V131Z"
       fill="#222222"
       id="path32" />
  </g>
  <defs
     id="defs44">
    <linearGradient
       id="paint0_linear_516_80"
       x1="349.167"
       y1="208.832"
       x2="213.818"
       y2="353.822"
       gradientUnits="userSpaceOnUse">
      <stop
         stop-color="#00D6E6"
         id="stop36" />
      <stop
         offset="1"
         stop-color="#9311F5"
         id="stop38" />
    </linearGradient>
    <clipPath
       id="clip0_516_80">
      <rect
         width="3233"
         height="558"
         fill="white"
         id="rect41" />
    </clipPath>
  </defs>
</svg>
