<svg width="48" height="46" viewBox="0 0 48 46" fill="none" xmlns="http://www.w3.org/2000/svg">
<path d="M13.9598 0.109495C13.8892 0.109396 13.8189 0.116771 13.7498 0.131494C13.474 0.190373 13.2329 0.35641 13.0795 0.593081C12.9261 0.829752 12.8729 1.11767 12.9318 1.39349C12.9907 1.66932 13.1567 1.91046 13.3934 2.06386C13.6301 2.21727 13.918 2.27037 14.1938 2.21149C14.4702 2.15204 14.7116 1.98527 14.865 1.74786C15.0184 1.51046 15.0712 1.22185 15.0118 0.945494C14.9601 0.706048 14.827 0.491914 14.6352 0.339504C14.4434 0.187094 14.2048 0.105817 13.9598 0.109495ZM26.8698 1.38549C26.5076 1.38597 26.1523 1.48482 25.8418 1.67149C25.6187 1.80544 25.4242 1.98203 25.2693 2.19116C25.1144 2.4003 25.0023 2.63789 24.9392 2.89037C24.8762 3.14285 24.8634 3.40528 24.9018 3.66267C24.9402 3.92006 25.0289 4.16738 25.1628 4.39049C25.2968 4.61361 25.4734 4.80816 25.6825 4.96303C25.8916 5.1179 26.1292 5.23007 26.3817 5.29312C26.6342 5.35617 26.8966 5.36887 27.154 5.3305C27.4114 5.29213 27.6587 5.20344 27.8818 5.06949C28.1053 4.93578 28.3003 4.75929 28.4554 4.55013C28.6106 4.34097 28.723 4.10325 28.7862 3.85058C28.8493 3.59792 28.862 3.33527 28.8235 3.07769C28.785 2.82011 28.6961 2.57265 28.5618 2.34949C28.3868 2.05665 28.139 1.81401 27.8425 1.64511C27.5461 1.47621 27.211 1.38678 26.8698 1.38549ZM20.8098 5.85749C18.78 5.87195 16.802 6.50013 15.1357 7.65951C13.4695 8.81889 12.1929 10.4552 11.4738 12.3535C10.4264 12.4821 9.42506 12.86 8.55383 13.4555C7.12781 14.4432 6.13691 15.9421 5.78684 17.641C5.43676 19.34 5.75441 21.1085 6.67383 22.5795C5.40689 23.737 4.59041 25.3055 4.36895 27.0073C4.14749 28.709 4.53534 30.4343 5.46383 31.8775C6.01491 32.7265 6.7388 33.4498 7.58828 34.0001C8.43776 34.5505 9.39374 34.9155 10.3938 35.0715C10.4298 36.5355 10.8698 38.0035 11.7658 39.2995C12.9416 41.0001 14.7444 42.1643 16.7782 42.5364C18.8119 42.9084 20.9102 42.4578 22.6118 41.2835C22.7478 41.1895 22.8518 41.0715 22.9798 40.9695C24.9538 42.7315 27.9198 43.0215 30.1938 41.4495C31.3543 40.6435 32.1807 39.4416 32.5178 38.0695C34.3552 38.1503 36.169 37.6315 37.6858 36.5915C39.4975 35.3397 40.7561 33.4371 41.1995 31.2802C41.6429 29.1232 41.2368 26.8784 40.0658 25.0135C41.0127 24.2197 41.6271 23.0993 41.7874 21.8742C41.9478 20.649 41.6425 19.4083 40.9318 18.3975C40.2906 17.4955 39.3629 16.8371 38.2998 16.5295C38.4589 14.4927 37.9108 12.4633 36.7478 10.7835C35.6239 9.1626 33.9955 7.95889 32.1163 7.35985C30.237 6.7608 28.2124 6.80006 26.3578 7.47149C24.7033 6.41037 22.7774 5.84989 20.8118 5.85749H20.8098ZM9.60383 7.49149C9.30124 7.49527 9.00666 7.58929 8.75783 7.76149C8.42684 7.99038 8.20033 8.34137 8.12813 8.73726C8.09237 8.93328 8.09558 9.13443 8.13757 9.32921C8.17956 9.524 8.2595 9.7086 8.37283 9.87249C8.48616 10.0364 8.63066 10.1763 8.79808 10.2844C8.9655 10.3924 9.15257 10.4664 9.34859 10.5022C9.74448 10.5744 10.1528 10.4864 10.4838 10.2575C10.648 10.1445 10.7883 10.0003 10.8966 9.83299C11.0049 9.6657 11.0791 9.47868 11.1149 9.28264C11.1508 9.08661 11.1476 8.88543 11.1056 8.69063C11.0635 8.49584 10.9834 8.31126 10.8698 8.14749C10.7285 7.94296 10.5392 7.77621 10.3185 7.66184C10.0978 7.54747 9.8524 7.48898 9.60383 7.49149ZM41.5918 12.2315C41.2553 12.2357 40.9278 12.341 40.6518 12.5335C40.3767 12.7234 40.164 12.9906 40.0407 13.3013C39.9175 13.6121 39.8891 13.9524 39.9593 14.2793C40.0295 14.6061 40.195 14.9048 40.435 15.1376C40.675 15.3704 40.9786 15.5267 41.3075 15.5869C41.6363 15.6471 41.9756 15.6083 42.2825 15.4756C42.5893 15.3429 42.8499 15.1222 43.0313 14.8414C43.2127 14.5606 43.3067 14.2322 43.3014 13.898C43.2962 13.5637 43.1919 13.2385 43.0018 12.9635C42.844 12.7363 42.633 12.551 42.3873 12.4238C42.1416 12.2966 41.8685 12.2292 41.5918 12.2315ZM25.2918 14.2875C25.4185 14.2875 25.5398 14.2968 25.6558 14.3155C25.9845 14.355 26.2959 14.4844 26.5558 14.6895C26.8938 14.9575 27.1018 15.1715 27.4198 15.4755C27.8998 15.9295 28.2478 15.6535 28.4878 15.5155C28.9038 15.2715 29.2258 15.0775 30.4558 15.0995C31.7218 15.1215 33.1818 15.5735 33.4838 17.7335C33.8198 20.1315 29.5518 26.3115 29.8498 29.1775C30.0618 31.1975 33.4798 29.7755 33.7698 31.6175C34.1418 34.0135 29.4978 33.1235 28.4358 32.6035C26.7718 31.7875 25.7618 29.9235 26.1958 28.0835C26.5158 26.7075 29.5958 21.0875 29.7098 20.2235C29.8278 19.3435 29.3558 19.2715 29.0618 19.2555C28.6818 19.2355 28.3818 19.4175 28.0098 19.9795C27.6718 20.4895 23.8458 28.1495 23.5138 28.7755C22.9218 29.8955 22.1738 30.1635 21.4258 30.1235C20.3298 30.0655 19.8298 29.4835 19.9858 28.4275C20.0798 27.8075 22.5058 22.3295 22.6318 21.4755C22.7098 20.9455 22.6058 20.3835 22.0818 20.1155C21.5558 19.8455 20.9378 20.2555 20.7538 20.5695C20.4978 20.9995 17.0578 29.9815 16.6898 30.6455C16.0578 31.7975 15.3898 32.1655 14.3858 32.2135C12.0138 32.3255 10.2558 30.3735 11.0298 27.9815C11.3758 26.9175 13.6618 18.8395 14.8198 16.7835C15.5978 15.4035 17.7558 14.3515 19.2538 14.9995C20.0278 15.3335 21.1038 15.8735 21.4218 16.0135C22.1538 16.3395 22.9398 15.4595 23.2478 15.1895C23.5558 14.9195 23.8518 14.6375 24.2278 14.4755C24.5118 14.3555 24.9138 14.2855 25.2918 14.2875ZM47.0518 18.4015C46.9893 18.403 46.927 18.4104 46.8658 18.4235C46.7456 18.4489 46.6315 18.4978 46.5302 18.5674C46.4289 18.637 46.3423 18.7259 46.2754 18.829C46.2085 18.9321 46.1626 19.0475 46.1404 19.1683C46.1182 19.2892 46.12 19.4133 46.1458 19.5335C46.1986 19.7764 46.3454 19.9886 46.5542 20.1235C46.763 20.2584 47.0167 20.3052 47.2598 20.2535C47.5028 20.2007 47.7149 20.0539 47.8498 19.8451C47.9848 19.6364 48.0315 19.3826 47.9798 19.1395C47.9338 18.9282 47.8164 18.7393 47.6474 18.6045C47.4784 18.4697 47.268 18.3973 47.0518 18.3995V18.4015ZM2.01583 20.0215C1.68862 20.019 1.36581 20.0969 1.07569 20.2482C0.785575 20.3995 0.537022 20.6197 0.351828 20.8895C0.127723 21.2155 0.00534447 21.6007 0.000171077 21.9963C-0.00500232 22.3919 0.107262 22.7801 0.322764 23.1119C0.538266 23.4436 0.847323 23.704 1.21084 23.8601C1.57436 24.0163 1.97601 24.061 2.36499 23.9888C2.75396 23.9166 3.11279 23.7307 3.39608 23.4545C3.67937 23.1784 3.87439 22.8244 3.95647 22.4374C4.03856 22.0504 4.00403 21.6477 3.85724 21.2804C3.71045 20.913 3.458 20.5974 3.13183 20.3735C2.80324 20.1475 2.4146 20.0249 2.01583 20.0215ZM44.6038 24.2095C44.5185 24.2091 44.4333 24.2178 44.3498 24.2355C44.1888 24.2704 44.0362 24.3366 43.9008 24.4305C43.7654 24.5244 43.6498 24.644 43.5606 24.7826C43.4715 24.9211 43.4105 25.0759 43.3812 25.238C43.3519 25.4002 43.3548 25.5665 43.3898 25.7275C43.4603 26.053 43.6569 26.3374 43.9365 26.5184C44.2161 26.6994 44.556 26.7624 44.8818 26.6935C45.207 26.6225 45.4909 26.4258 45.6715 26.1463C45.8521 25.8667 45.9148 25.5271 45.8458 25.2015C45.7843 24.9186 45.6272 24.6656 45.401 24.4849C45.1748 24.3043 44.8933 24.207 44.6038 24.2095ZM8.12383 36.4035C8.06188 36.4058 8.00029 36.4138 7.93983 36.4275C7.69901 36.4792 7.4886 36.6245 7.35489 36.8313C7.22118 37.0382 7.17511 37.2897 7.22683 37.5305C7.27855 37.7713 7.42381 37.9817 7.63066 38.1154C7.83751 38.2491 8.08901 38.2952 8.32983 38.2435C8.44933 38.2179 8.5626 38.1689 8.66313 38.0994C8.76366 38.0299 8.84947 37.9412 8.91562 37.8384C8.98178 37.7357 9.02699 37.6208 9.04864 37.5005C9.0703 37.3803 9.06798 37.2569 9.04183 37.1375C8.99671 36.9282 8.88073 36.7408 8.71348 36.6071C8.54623 36.4734 8.33796 36.4014 8.12383 36.4035ZM35.4738 39.5035C35.0564 39.5083 34.6502 39.6387 34.3078 39.8775C33.9671 40.113 33.7038 40.4444 33.5514 40.8296C33.399 41.2148 33.3643 41.6365 33.4516 42.0414C33.5389 42.4464 33.7444 42.8163 34.042 43.1044C34.3397 43.3926 34.716 43.586 35.1236 43.6601C35.5311 43.7343 35.9515 43.686 36.3316 43.5212C36.7117 43.3564 37.0343 43.0825 37.2587 42.7343C37.4831 42.3861 37.5992 41.9792 37.5923 41.565C37.5853 41.1508 37.4557 40.748 37.2198 40.4075C37.0257 40.1249 36.7647 39.8947 36.4601 39.7373C36.1555 39.5799 35.8167 39.4983 35.4738 39.5035ZM22.7998 43.3075C22.5421 43.3099 22.2912 43.3901 22.0798 43.5375C21.9402 43.634 21.8209 43.757 21.7289 43.8996C21.6368 44.0422 21.5738 44.2016 21.5433 44.3685C21.5128 44.5355 21.5156 44.7068 21.5514 44.8728C21.5871 45.0387 21.6553 45.1959 21.7518 45.3355C21.8483 45.4751 21.9714 45.5944 22.114 45.6864C22.2566 45.7785 22.4159 45.8416 22.5829 45.872C22.7498 45.9025 22.9212 45.8997 23.0871 45.864C23.253 45.8282 23.4102 45.7601 23.5498 45.6635C23.8313 45.4686 24.0239 45.1701 24.0854 44.8333C24.1469 44.4966 24.0722 44.1492 23.8778 43.8675C23.7571 43.6931 23.5956 43.551 23.4074 43.4534C23.2191 43.3558 23.0119 43.3057 22.7998 43.3075Z" fill="white"/>
</svg>
