<svg width="48" height="48" viewBox="0 0 48 48" fill="none" xmlns="http://www.w3.org/2000/svg">
<path fill-rule="evenodd" clip-rule="evenodd" d="M39.5494 8.85993C40.0436 8.65191 40.5846 8.58017 41.116 8.65216C41.6474 8.72416 42.1497 8.93727 42.5708 9.2693C42.9918 9.60133 43.3162 10.0402 43.5101 10.5401C43.7041 11.04 43.7604 11.5828 43.6734 12.1119L39.1374 39.6259C38.6974 42.2799 35.7854 43.8019 33.3514 42.4799C31.3154 41.3739 28.2914 39.6699 25.5714 37.8919C24.2114 37.0019 20.0454 34.1519 20.5574 32.1239C20.9974 30.3899 27.9974 23.8739 31.9974 19.9999C33.5674 18.4779 32.8514 17.5999 30.9974 18.9999C26.3934 22.4759 19.0014 27.7619 16.5574 29.2499C14.4014 30.5619 13.2774 30.7859 11.9334 30.5619C9.4814 30.1539 7.2074 29.5219 5.3514 28.7519C2.8434 27.7119 2.9654 24.2639 5.3494 23.2599L39.5494 8.85993Z" fill="white"/>
</svg>
